<svg xmlns="http://www.w3.org/2000/svg" width="118.401" height="30" viewBox="0 0 118.401 30">
  <path id="パス_5" data-name="パス 5" d="M7.876-7.62c.474,0,2.665.03,3.909.03,3.7,0,4.768-1.244,5.656-3.524a4.617,4.617,0,0,0,.592-1.747,1.712,1.712,0,0,0-1.777-1.629,1.577,1.577,0,0,0-1.54,1.037c-.74,2.043-1.362,2.873-3.11,2.873H7.314c-.681-.059-.74-.326-.77-.829-.059-.563-.059-2.31-.059-4.442,0-3.495.059-8.026.118-10.454.03-.415.237-.5.5-.5.118,0,.237.03.355.03H7.58a1.568,1.568,0,0,0,1.688-1.54,1.575,1.575,0,0,0-1.747-1.57H7.462c-.8.03-1.807.059-2.784.059-.829,0-1.6-.03-2.221-.059H2.309A1.533,1.533,0,0,0,.68-28.35a1.618,1.618,0,0,0,1.777,1.57c.148,0,.267-.03.385-.03H2.96c.3,0,.444.118.444.533v4.383c0,11.165-.03,11.194-.652,11.194H2.575A1.533,1.533,0,0,0,.947-9.16,1.515,1.515,0,0,0,2.575-7.62h.118c.563-.03,1.244-.03,1.984-.03,1.007,0,2.1,0,3.08.03Zm17.562-3.021c-.385-.059-.622-.207-.622-.652-.03-1.658-.118-3.495-.118-4.946,0-.326.03-.444.178-.444a2.48,2.48,0,0,1,.3.059,12.63,12.63,0,0,0,2.31.207c.681,0,1.333-.059,2.014-.118A6.891,6.891,0,0,0,35.922-23.4c0-3.11-2.162-6.19-6.811-6.486-.415-.03-.948-.03-1.54-.03-1.629,0-3.731.059-5.271.059-.563,0-1.037,0-1.392-.03h-.178a1.479,1.479,0,0,0-1.6,1.481c0,.622.326,1.54,1.866,1.54.474,0,.592.237.592.711.03,1.333.059,4.413.059,7.493s-.03,6.13-.089,7.4c-.03.355-.148.711-.622.711h-.118A1.573,1.573,0,0,0,19.1-9.041a1.512,1.512,0,0,0,1.777,1.481c.3-.03,1.362-.059,2.577-.059.8,0,1.629.03,2.34.059h.118a1.566,1.566,0,0,0,1.6-1.57,1.545,1.545,0,0,0-1.688-1.51Zm3.346-16.347c2.754,0,3.909,1.629,3.909,3.376a4.192,4.192,0,0,1-3.672,4.235,16.115,16.115,0,0,1-1.688.089c-2.369,0-2.665-.355-2.665-.859v-3.021c0-1.1.03-2.162.059-2.813.148-.918.207-1.037,2.162-1.037C27.807-27.018,28.785-26.988,28.785-26.988ZM50.2-7.265a4.11,4.11,0,0,1-4.353,4.413,6.157,6.157,0,0,1-3.791-1.333A1.512,1.512,0,0,0,41.1-4.54a1.626,1.626,0,0,0-1.57,1.6c0,1.422,2.725,3.021,5.834,3.021,3.761,0,7.641-2.28,7.73-7.4,0-.859.03-1.807.03-2.754,0-1.688-.03-3.435-.03-4.886,0-3.7.089-4.028.948-4.028h.118a1.322,1.322,0,0,0,1.244-1.451c0-1.125-.652-1.6-1.955-1.6a2.672,2.672,0,0,0-2.843,1.688c-.03.089-.059.148-.118.148s-.118-.059-.178-.148a5.913,5.913,0,0,0-4.324-1.866c-4.679,0-7.167,3.583-7.167,7.493a7,7,0,0,0,7.048,7.374,6.168,6.168,0,0,0,4.146-1.6c.059-.059.089-.059.118-.059.059,0,.089.03.089.148Zm-4.265-2.784c-2.28,0-4.146-1.777-4.146-4.679,0-4.265,3.406-4.738,4.235-4.738,2.34,0,4.176,1.777,4.176,4.679C50.2-11.855,48.242-10.048,45.932-10.048ZM63.908-9.041a1.4,1.4,0,0,0-1.629-1.392c-.3,0-.5,0-.5-.326-.03-1.333-.03-2.4-.03-3.287,0-.918,0-1.6.03-2.132a3.623,3.623,0,0,1,3.672-3.08,1.382,1.382,0,0,0,1.481-1.422,1.522,1.522,0,0,0-1.57-1.57,5.856,5.856,0,0,0-3.317,1.185c-.148.118-.237.207-.3.207s-.089-.03-.118-.089a2.984,2.984,0,0,0-2.695-1.125h-.148c-.3,0-.385.03-.74.03a1.391,1.391,0,0,0-1.362,1.51,1.371,1.371,0,0,0,1.333,1.51h.178c.533,0,.681.3.681.74.03,1.451.03,2.221.03,2.813,0,1.125-.03,1.6-.089,4.62,0,.326-.118.415-.385.415h-.267a1.405,1.405,0,0,0-1.481,1.451,1.338,1.338,0,0,0,1.6,1.392c.355-.03.948-.03,1.57-.03.888,0,1.836,0,2.428.03h.059A1.448,1.448,0,0,0,63.908-9.041ZM78.271-8.6A2.271,2.271,0,0,0,80.4-7.561a1.641,1.641,0,0,0,1.866-1.629,1.349,1.349,0,0,0-1.392-1.392c-.5,0-.563-.3-.563-1.392,0-1.451.089-3.791.148-4.235.03-.415.059-.8.059-1.155,0-3.406-1.747-5-5.035-5-2.991,0-5.6,1.57-5.6,2.991a1.391,1.391,0,0,0,1.422,1.362,1.436,1.436,0,0,0,1.1-.533,3.92,3.92,0,0,1,2.9-1.244c2.014,0,2.1,1.51,2.1,1.866,0,.622-.237.977-.533,1.007a32.006,32.006,0,0,0-5.064,1.3,3.892,3.892,0,0,0-2.873,3.7,4.871,4.871,0,0,0,5.183,4.65A6.8,6.8,0,0,0,78.271-8.6Zm-1.125-5.834c.355,0,.415.652.415,1.1,0,2.1-1.037,3.317-3.435,3.317-1.51,0-2.31-.918-2.31-1.836,0-.711.3-1.955,5.3-2.577ZM89.88-.1a1.443,1.443,0,0,0,1.481-1.481A1.328,1.328,0,0,0,90.028-3c-1.185,0-1.214-.385-1.214-1.007-.03-1.392-.03-2.991-.03-4.857,0-.118.03-.148.059-.148a.191.191,0,0,1,.148.059,6.111,6.111,0,0,0,4.146,1.6,7.093,7.093,0,0,0,7.167-7.433c0-4.472-3.08-7.433-7.167-7.433A5.972,5.972,0,0,0,88.7-20.354c-.059.089-.118.148-.178.148-.03,0-.089-.059-.118-.148a2.744,2.744,0,0,0-2.873-1.688c-1.333,0-2.1.474-2.1,1.629a1.334,1.334,0,0,0,1.362,1.422h.148c.592,0,.888.355.888,1.037.03,3.287.118,7.818.118,11.431,0,.859-.03,1.688-.03,2.428,0,.829-.089,1.185-.859,1.185h-.3a1.319,1.319,0,0,0-1.333,1.392A1.34,1.34,0,0,0,84.875-.1Zm3.2-9.951c-2.369,0-4.265-1.807-4.265-4.738,0-2.9,1.9-4.679,4.265-4.679s4.265,1.777,4.265,4.679C97.343-11.855,95.448-10.048,93.079-10.048Zm24.4,2.458a1.428,1.428,0,0,0,1.6-1.362,1.49,1.49,0,0,0-1.658-1.422.365.365,0,0,1-.385-.415c0-2.221-.059-5.3-.089-6.486a4.85,4.85,0,0,0-5.212-5.094,6.76,6.76,0,0,0-4,1.244c-.089.059-.118.089-.148.089-.059,0-.059-.059-.059-.178.03-.77.089-2.28.089-4.205,0-.592-.03-1.244-.03-1.925-.03-1.777-1.481-2.488-3.11-2.517-.3,0-.592,0-.948-.03h-.089a1.4,1.4,0,0,0-1.362,1.54,1.425,1.425,0,0,0,1.658,1.54c.622,0,.8.237.8.77.03,1.451.03,3.169.03,5,0,3.435-.03,7.226-.089,10.247,0,.326-.089.415-.355.415h-.267a1.4,1.4,0,0,0-1.481,1.422,1.345,1.345,0,0,0,1.6,1.362c.355-.03.948-.03,1.57-.03.888,0,1.836,0,2.428.03h.059a1.443,1.443,0,0,0,1.57-1.422,1.371,1.371,0,0,0-1.629-1.362c-.3,0-.5,0-.5-.326-.03-1.333-.03-2.517-.03-3.495s0-1.777.03-2.31a3.66,3.66,0,0,1,3.7-3.169,2.688,2.688,0,0,1,2.754,2.843c.03.5.059,1.718.059,3.11,0,.948-.03,1.984-.03,2.9,0,.326-.118.444-.415.444h-.237a1.4,1.4,0,0,0-1.481,1.422,1.345,1.345,0,0,0,1.6,1.362c.355-.03.948-.03,1.57-.03.888,0,1.836,0,2.428.03Z" transform="translate(-0.68 29.92)" fill="#fff"/>
</svg>
