<svg xmlns="http://www.w3.org/2000/svg" width="163.84" height="39.56" viewBox="0 0 163.84 39.56">
  <path id="パス_6" data-name="パス 6" d="M2.28-2.8A1.111,1.111,0,0,0,1.12-1.64,1.1,1.1,0,0,0,2.4-.48C3.72-.56,5.64-.56,7.68-.56c2.72,0,5.88.04,8.8.08h.16c4.28,0,5.16-2.48,6.2-5.6a1.271,1.271,0,0,0,.08-.52,1.187,1.187,0,0,0-1.24-1.2,1.176,1.176,0,0,0-1.16.88,18.337,18.337,0,0,1-1.08,2.64,3.029,3.029,0,0,1-2.96,1.6c-1.56.04-4.8.04-6.8.04-2.04,0-2.48,0-2.48-.92,0-2.48-.04-6.72-.04-11.04,0-4.36.04-8.8.08-11.68a.684.684,0,0,1,.72-.76c.64,0,1,0,1.6.04h.08a1.138,1.138,0,0,0,1.2-1.12,1.145,1.145,0,0,0-1.28-1.16c-1.28.04-2.68.08-4.04.08-1.12,0-2.24-.04-3.16-.08H2.28a1.138,1.138,0,0,0-1.2,1.12A1.164,1.164,0,0,0,2.36-27c.52,0,.92-.04,1.6-.04a.681.681,0,0,1,.76.72v5.76c0,5.92-.04,13.12-.08,17a.8.8,0,0,1-.76.8c-.64,0-1.04-.04-1.56-.04Zm25.4.04a1.2,1.2,0,0,0-1.28,1.2c0,.2.04,1.16,1.32,1.12C28.68-.48,30-.52,31.4-.52c1.16,0,2.36.04,3.48.08h.08a1.143,1.143,0,0,0,1.16-1.2A1.155,1.155,0,0,0,34.88-2.8c-.6,0-.92.04-1.56.04a.788.788,0,0,1-.84-.8c-.04-2.8-.08-6.4-.08-8.84,0-.48.08-.6.28-.6a2.3,2.3,0,0,1,.4.08,16.181,16.181,0,0,0,3.76.4,25.165,25.165,0,0,0,2.92-.16,8.354,8.354,0,0,0,7.84-8.36c0-3.96-2.76-7.88-8.4-8.24-.68-.04-1.4-.04-2.2-.04-1.96,0-4.24.08-6.4.08-.96,0-1.92-.04-2.8-.08h-.12a1.072,1.072,0,0,0-1.16,1.08,1.213,1.213,0,0,0,1.28,1.16h1.48c.56,0,.76.32.76.84,0,1.6.04,4.72.04,8.28,0,5.04-.04,10.92-.08,14.44a.739.739,0,0,1-.72.8c-.64,0-1.04-.04-1.56-.04ZM39.32-14.84c-.88.08-1.76.16-2.64.16-3.96,0-4.28-.84-4.28-1.32v-6.84c0-4.12,0-4.2,1.04-4.28.76-.04,2.2-.08,3.48-.08.84,0,1.64.04,2,.04,4.2.24,6.2,3.08,6.2,6A6.28,6.28,0,0,1,39.32-14.84ZM69.36.6C69.32,5.96,65.8,8,62.32,8a8.02,8.02,0,0,1-5.68-2.16,1.132,1.132,0,0,0-.8-.36A1.359,1.359,0,0,0,54.52,6.8c0,1.64,4.56,3.44,7.64,3.44,4.84,0,9.4-3.04,9.44-9.68,0-2.12-.04-6.8-.04-10.48,0-1.8,0-3.4.04-4.24.04-1.6.64-2.2,1.44-2.24h.72a1.012,1.012,0,0,0,.96-1.12c0-.92-.56-1.2-1.68-1.2a3.164,3.164,0,0,0-3.4,2.84c-.04.32-.08.44-.12.44a5.651,5.651,0,0,1-.4-.56,8.465,8.465,0,0,0-6.6-3.08c-5.2,0-9.12,3.88-9.12,9.52,0,5.72,3.88,9.52,9.08,9.52A8.417,8.417,0,0,0,69-3.2c.16-.24.28-.36.32-.36s.04.12.04.48Zm-6.8-2.8c-4,0-6.8-2.8-6.8-7.36s2.8-7.4,6.84-7.4c3.92,0,6.76,2.84,6.76,7.4C69.36-5.08,66.32-2.2,62.56-2.2ZM86-.48a1.1,1.1,0,0,0,1.16-1.08,1.084,1.084,0,0,0-1.2-1.08c-.56.04-.72.04-1.32.04a.661.661,0,0,1-.68-.72c0-1.92-.04-3.72-.04-5.24s.04-2.76.04-3.52c.08-2.96,3.08-4.76,5.84-4.76h.24a1.092,1.092,0,0,0,1.12-1.12,1.113,1.113,0,0,0-1.32-1.12c-2.28.08-4.6,1-5.68,2.48a.346.346,0,0,1-.24.12c-.04,0-.12,0-.12-.12-.24-1.44-1.56-2.12-3.16-2.12H79.52a1.079,1.079,0,0,0-1.12,1.16,1.058,1.058,0,0,0,1.08,1.12h.04a7.143,7.143,0,0,1,.84-.04c1,.04,1.32.76,1.32,1.84v3.12c0,2.68-.04,5.12-.08,8.2a.633.633,0,0,1-.64.72c-.64,0-.84-.04-1.36-.04h-.04A1.1,1.1,0,0,0,78.4-1.52,1.034,1.034,0,0,0,79.6-.48c.92-.04,2-.08,3.08-.08s2.24.04,3.28.08Zm25.72.08a1.083,1.083,0,0,0,1.08-1.12,1.015,1.015,0,0,0-.68-1c-1.6-.56-1.88-1.52-1.88-4.44,0-1.52.08-3.6.2-4.92a10.862,10.862,0,0,0,.04-1.12c0-4.48-2.52-6.12-6.24-6.12-3.44,0-6.8,1.72-6.8,3.24a1.084,1.084,0,0,0,1.12,1.08,1.115,1.115,0,0,0,.84-.4,6.3,6.3,0,0,1,4.68-1.92c3.24,0,4.16,1.72,4.16,3.92,0,.2-.04.44-.04.64,0,.28-.16.4-.64.48a64.358,64.358,0,0,0-7.4,1.64c-2.96.92-4.28,2.96-4.28,4.96,0,2.76,2.44,5.52,6.48,5.52a7.393,7.393,0,0,0,6.08-3.08.214.214,0,0,1,.16-.12c.08,0,.12.08.16.2A3.4,3.4,0,0,0,111.72-.4Zm-9.4-1.68c-2.68,0-4.28-1.68-4.28-3.36,0-2.8,3.32-3.6,9.6-4.6h.12c.28,0,.4.12.4.44v.52C108.16-2.92,104.36-2.08,102.32-2.08ZM124.6,9.84a1.068,1.068,0,0,0,1.12-1.12,1.017,1.017,0,0,0-1.04-1.08h-.04c-.6,0-.52.04-1.16.04a.805.805,0,0,1-.92-.92V-2.76c0-.44,0-.64.08-.64a4.227,4.227,0,0,1,.4.48A8.172,8.172,0,0,0,129.4,0c5.2,0,9.08-3.76,9.08-9.48,0-5.64-3.88-9.52-9.08-9.52a8.234,8.234,0,0,0-6.6,3.16c-.16.2-.24.32-.32.32s-.04-.32-.08-.64a2.9,2.9,0,0,0-3-2.56c-.4,0-.8.04-1.32.04a1.125,1.125,0,0,0-1.16,1.12,1.092,1.092,0,0,0,1.12,1.12h.04c.52,0,.44-.04.8-.04,1.04.04,1.4.8,1.4,1.96v5.8c0,5.28,0,11.48-.04,15.48,0,.6-.2.96-.76.96a12.449,12.449,0,0,1-1.28-.04h-.08a1,1,0,0,0-1.04,1.08.976.976,0,0,0,1.12,1.08c.72-.04,1.64-.04,2.56-.04,1.32,0,2.72,0,3.8.04Zm4.72-11.92c-3.8,0-6.8-2.92-6.8-7.4s3-7.44,6.8-7.44,6.8,2.96,6.8,7.44S133.12-2.08,129.32-2.08Zm34.44,1.6a1.072,1.072,0,0,0,1.16-1.08,1.072,1.072,0,0,0-1.16-1.08h-.04c-.56,0-.52.04-1.12.04-.48,0-.68-.28-.68-.72,0-3.16-.04-7.76-.08-9.44a6.335,6.335,0,0,0-6.68-6.4,7.5,7.5,0,0,0-5.92,2.72c-.08.08-.12.12-.16.12s-.08-.08-.08-.2c0-.56.04-4.16.04-7.4V-26.2a2.79,2.79,0,0,0-2.72-3.04,8.421,8.421,0,0,0-1-.08c-1.72,0-2.04.52-2.04,1.2A1.092,1.092,0,0,0,144.4-27h.04a7.768,7.768,0,0,1,.88-.04c1.04.04,1.36.6,1.36,1.64,0,2.4.04,5.64.04,9.04,0,4.8-.04,9.84-.08,13.08a.6.6,0,0,1-.64.68c-.64,0-.76-.04-1.28-.04h-.04a1.1,1.1,0,0,0-1.16,1.12,1.034,1.034,0,0,0,1.2,1.04c.92-.04,1.92-.08,2.92-.08s2.08.04,3.12.08h.04a1.1,1.1,0,0,0,1.16-1.08,1.084,1.084,0,0,0-1.2-1.08,10.113,10.113,0,0,1-1.12.04.611.611,0,0,1-.68-.68c0-1.88-.04-3.64-.04-5.12,0-1.44.04-2.64.04-3.4.12-3.16,3.16-5.24,5.96-5.24,2.28,0,4.4,1.4,4.6,4.72.04.76.08,2.64.08,4.72,0,1.48-.04,3-.04,4.32a.62.62,0,0,1-.64.68c-.64,0-.68-.04-1.2-.04h-.04a1.1,1.1,0,0,0-1.16,1.12,1.034,1.034,0,0,0,1.2,1.04c.92-.04,1.88-.08,2.88-.08,1.04,0,2.08.04,3.12.08Z" transform="translate(-1.08 29.32)" fill="#fff"/>
</svg>
