<svg xmlns="http://www.w3.org/2000/svg" width="504.781" height="135.75" viewBox="0 0 504.781 135.75">
  <defs>
    <style>
      .cls-1 {
        fill: #fff;
        fill-rule: evenodd;
      }
    </style>
  </defs>
  <path id="JSgraph" class="cls-1" d="M44.433,369.729H44.7c1.86,0,2.524,1.328,2.524,3.055,0.266,8.235.4,16.337,0.4,24.573,0,9.563-.133,19.392-0.4,30.151-0.266,9.3-5.712,14.213-13.814,14.213a23.261,23.261,0,0,1-7.04-1.063,10.956,10.956,0,0,0-3.454-.531,6.9,6.9,0,0,0-7.173,7.173c0,7.969,8.767,9.563,17.4,9.563,15.674,0,28.691-9.3,28.691-27.5v-0.93c-0.133-10.36-.266-19.791-0.266-28.956s0.133-17.932.266-26.7c0.133-2.524,1.2-2.923,2.922-2.923h1.86c4.915,0,7.571-3.586,7.571-7.039,0-3.587-2.524-7.04-7.837-7.04H66.084c-3.586.133-8.634,0.265-13.416,0.265-3.852,0-7.571-.132-10.361-0.265H41.644a6.9,6.9,0,0,0-7.306,7.04c0,6.11,5.977,7.172,7.97,7.039Zm104.144,58.709c0-9.7-5.579-19.924-18.862-27.1-6.243-3.32-15.275-7.438-20.854-10.36-5.977-3.188-8.633-7.7-8.633-12.087,0-6.11,5.313-11.556,14.079-11.556,9.7,0,15.807,4.516,15.807,8.368,0,0.4-.133.93-0.133,1.461V377.7c0,3.852,3.586,5.845,7.04,5.845,2.391,0,7.438-1.329,7.172-6.376-0.132-2.391-.265-5.313-0.265-8.368,0-2.657.133-5.18,0.265-7.7v-0.4c0-3.719-3.586-5.578-7.172-5.578a7.821,7.821,0,0,0-5.712,2.125,1.85,1.85,0,0,1-1.195.4,1.981,1.981,0,0,1-.93-0.132,34.6,34.6,0,0,0-14.744-3.188c-18.2,0-28.69,12.22-28.69,24.971,0,9.165,5.313,18.6,17,23.909,7.04,3.188,14.479,7.306,20.323,10.626,7.04,3.985,10.228,9.7,10.228,15.01,0,5.977-4.782,14.611-18.331,14.611-7.836,0-19.127-3.587-19.127-11.158v-1.062c0-4.118-3.453-6.243-7.04-6.243s-7.173,1.992-7.173,6.375v0.266c0.133,2.789.266,6.509,0.266,9.962,0,2.79-.133,5.579-0.266,7.837v0.531c0,4.251,3.454,6.509,7.04,6.509a7.386,7.386,0,0,0,5.844-2.657,1.8,1.8,0,0,1,1.328-.93,2.519,2.519,0,0,1,1.2.4,40.01,40.01,0,0,0,18.2,3.985C134.9,457.262,148.577,443.581,148.577,428.438Zm62.969,28.691c-0.133,13.814-9.431,19.791-19.526,19.791a27.617,27.617,0,0,1-17-5.977,6.776,6.776,0,0,0-4.25-1.594,7.294,7.294,0,0,0-7.04,7.173c0,6.375,12.22,13.548,26.167,13.548,16.869,0,34.269-10.228,34.668-33.207,0-3.852.133-8.1,0.133-12.353,0-7.571-.133-15.408-0.133-21.916,0-16.6.4-18.065,4.25-18.065h0.532c3.586,0,5.578-3.188,5.578-6.508,0-5.048-2.922-7.173-8.766-7.173-8.235,0-11.556,4.118-12.752,7.571a0.725,0.725,0,0,1-.531.664,1.192,1.192,0,0,1-.8-0.664c-4.117-5.047-12.22-8.368-19.393-8.368-20.986,0-32.144,16.072-32.144,33.605,0,19.26,13.549,33.074,31.613,33.074a27.665,27.665,0,0,0,18.6-7.172,0.64,0.64,0,0,1,.531-0.266c0.266,0,.4.133,0.4,0.664Zm-19.127-12.486c-10.228,0-18.6-7.969-18.6-20.987,0-19.127,15.275-21.252,18.994-21.252,10.494,0,18.729,7.97,18.729,20.987C211.546,436.541,202.779,444.643,192.419,444.643Zm80.635,4.516c0-2.922-1.992-6.508-7.3-6.243-1.328,0-2.258,0-2.258-1.461-0.133-5.977-.133-10.759-0.133-14.744,0-4.117,0-7.172.133-9.563,0.531-8.368,8.9-13.681,16.47-13.814,4.517,0,6.642-3.188,6.642-6.376a6.826,6.826,0,0,0-7.04-7.04,26.269,26.269,0,0,0-14.877,5.313,3.909,3.909,0,0,1-1.328.93,0.556,0.556,0,0,1-.531-0.4c-2.125-3.454-6.509-5.048-12.088-5.048h-0.664c-1.328,0-1.726.133-3.32,0.133-4.118,0-6.11,3.454-6.11,6.774,0,3.454,1.992,6.775,5.977,6.775h0.8c2.391,0,3.055,1.328,3.055,3.32,0.133,6.509.133,9.962,0.133,12.619,0,5.047-.133,7.172-0.4,20.721,0,1.461-.531,1.859-1.727,1.859h-1.195a6.3,6.3,0,0,0-6.641,6.509c0,1.86.8,6.641,7.172,6.243,1.594-.133,4.251-0.133,7.04-0.133,3.985,0,8.235,0,10.892.133h0.266C270.664,455.668,273.054,452.48,273.054,449.159Zm64.428,1.993c2.125,3.852,6.242,4.649,9.563,4.649,1.328,0,8.368,0,8.368-7.306a6.051,6.051,0,0,0-6.243-6.243c-2.258,0-2.523-1.328-2.523-6.243,0-6.508.4-17,.664-18.994,0.133-1.859.265-3.586,0.265-5.18,0-15.275-7.836-22.448-22.58-22.448-13.416,0-25.1,7.04-25.1,13.416a6.239,6.239,0,0,0,6.375,6.11,6.44,6.44,0,0,0,4.915-2.391,17.582,17.582,0,0,1,13.017-5.579c9.032,0,9.431,6.774,9.431,8.368,0,2.789-1.063,4.383-2.391,4.516-2.126.133-13.549,2.657-22.714,5.845-8.9,3.055-12.884,9.829-12.884,16.6,0,10.228,8.634,20.854,23.245,20.854C325.66,457.129,332.7,455,337.482,451.152Zm-5.048-26.167c1.594,0,1.86,2.922,1.86,4.914,0,9.431-4.649,14.877-15.408,14.877-6.774,0-10.361-4.118-10.361-8.235,0-3.188,1.329-8.767,23.776-11.556h0.133Zm57.124,64.288a6.47,6.47,0,0,0,6.641-6.641c0-3.188-1.992-6.376-5.977-6.376-5.313,0-5.446-1.727-5.446-4.516-0.133-6.243-.133-13.416-0.133-21.784,0-.531.133-0.664,0.266-0.664a0.858,0.858,0,0,1,.664.266,27.414,27.414,0,0,0,18.6,7.172c18.33,0,32.144-13.946,32.144-33.339,0-20.057-13.814-33.34-32.144-33.34-7.173,0-15.142,2.79-19.924,8.368a1.194,1.194,0,0,1-.8.664,0.945,0.945,0,0,1-.531-0.664c-1.594-4.516-5.845-7.571-12.885-7.571-5.977,0-9.43,2.125-9.43,7.306,0,3.187,1.992,6.375,6.11,6.375h0.664c2.656,0,3.985,1.594,3.985,4.649,0.132,14.744.531,35.067,0.531,51.272,0,3.852-.133,7.571-0.133,10.891,0,3.72-.4,5.314-3.852,5.314h-1.328c-3.985,0-5.977,3.187-5.977,6.242a6.01,6.01,0,0,0,6.508,6.376h22.448Zm14.345-44.63c-10.626,0-19.127-8.1-19.127-21.252,0-13.017,8.5-20.987,19.127-20.987s19.127,7.97,19.127,20.987C423.03,436.541,414.529,444.643,403.9,444.643Zm109.459,11.025c4.782,0,7.173-3.055,7.173-6.11,0-3.188-2.524-6.376-7.438-6.376a1.635,1.635,0,0,1-1.727-1.86c0-9.962-.266-23.776-0.4-29.089-0.532-16.869-12.088-22.846-23.378-22.846-6.907,0-13.681,2.258-17.932,5.579a1.944,1.944,0,0,1-.664.4c-0.265,0-.265-0.265-0.265-0.8,0.132-3.453.4-10.227,0.4-18.861,0-2.657-.133-5.579-0.133-8.634-0.133-7.97-6.641-11.157-13.947-11.29-1.328,0-2.656,0-4.25-.133h-0.4c-4.117,0-6.11,3.453-6.11,6.907,0,6.774,5.313,6.907,7.439,6.907,2.789,0,3.586,1.063,3.586,3.453,0.133,6.509.133,14.213,0.133,22.448,0,15.408-.133,32.41-0.4,45.958,0,1.462-.4,1.86-1.594,1.86h-1.195a6.274,6.274,0,0,0-6.641,6.376c0,0.4,0,6.508,7.172,6.11,1.594-.133,4.251-0.133,7.04-0.133,3.985,0,8.235,0,10.892.133h0.266c4.649,0,7.039-3.188,7.039-6.376,0-2.391-1.461-6.376-7.3-6.11-1.328,0-2.258,0-2.258-1.461-0.133-5.977-.133-11.29-0.133-15.674s0-7.969.133-10.36c0.4-8.368,8.9-14.213,16.6-14.213,6.11,0,11.822,3.719,12.353,12.752,0.133,2.258.266,7.7,0.266,13.947,0,4.25-.133,8.9-0.133,13.017,0,1.461-.531,1.992-1.86,1.992h-1.062a6.275,6.275,0,0,0-6.642,6.376c0,0.4,0,6.508,7.173,6.11,1.594-.133,4.251-0.133,7.04-0.133,3.985,0,8.235,0,10.892.133h0.265Z" transform="translate(-15.75 -354.312)"/>
</svg>
